# xmcd
#
# Track frame offsets:
#	150
#	9600
#	22056
#	34278
#	44232
#	59830
#	76605
#	94177
#	102880
#	118602
#	131475
#	143743
#	169912
#
# Disc length: 2374 seconds
#
# Revision: 0
# Processed by: cddbd v1.5.2PL0 Copyright (c) Steve Scherf et al.
# Submitted via: EasyCDDAExtractor 12.0.0.1
#
DISCID=b509440d
DTITLE=The Cordwood Draggers - A Good Ol' Country Jamboree
DYEAR=2008
DGENRE=Country
TTITLE0=Gamblin' Man
TTITLE1=Jukebox You and Me Girl
TTITLE2=Beady Lil' Eyes
TTITLE3=Hole In My Pirogue
TTITLE4=Enter My Heart
TTITLE5=Simple Lies and Half Truths
TTITLE6=Rositta
TTITLE7=Let's Tie The Knot
TTITLE8=You Never Looked Sweeter
TTITLE9=Feel True Love
TTITLE10=That Gal's Not Mine
TTITLE11=Cried In Knots Again
TTITLE12=Lover's Moon(Bonus Promo Video)
EXTD=
EXTT0=
EXTT1=
EXTT2=
EXTT3=
EXTT4=
EXTT5=
EXTT6=
EXTT7=
EXTT8=
EXTT9=
EXTT10=
EXTT11=
EXTT12=
PLAYORDER=
